{"glyphs":{"0":{"ha":694,"x_min":132,"x_max":563,"o":"m 132 0 l 563 0 l 563 612 l 132 612 l 132 0 m 460 511 l 460 98 l 240 98 l 240 510 l 460 511 "},"1":{"ha":694,"x_min":146,"x_max":483,"o":"m 483 0 l 483 612 l 146 610 l 146 514 l 381 514 l 381 0 l 483 0 "},"2":{"ha":694,"x_min":132,"x_max":563,"o":"m 563 102 l 296 102 l 563 305 l 563 612 l 132 612 l 132 389 l 235 389 l 235 510 l 454 510 l 454 374 l 134 107 l 134 1 l 563 0 l 563 102 "},"3":{"ha":694,"x_min":132,"x_max":563,"o":"m 453 266 l 243 266 l 243 347 l 399 510 l 132 510 l 132 612 l 560 610 l 560 505 l 406 347 l 563 347 l 563 0 l 132 0 l 132 180 l 235 180 l 235 102 l 453 102 l 453 266 "},"4":{"ha":694,"x_min":104,"x_max":601,"o":"m 410 102 l 237 102 l 410 399 l 410 102 m 518 -138 l 518 0 l 601 0 l 601 102 l 518 102 l 518 612 l 410 612 l 104 107 l 104 1 l 410 0 l 410 -138 l 518 -138 "},"5":{"ha":694,"x_min":132,"x_max":563,"o":"m 453 266 l 132 266 l 132 610 l 563 610 l 563 506 l 251 505 l 251 374 l 563 374 l 563 0 l 132 0 l 132 180 l 235 180 l 235 102 l 453 102 l 453 266 "},"6":{"ha":694,"x_min":132,"x_max":563,"o":"m 132 610 l 132 0 l 563 0 l 563 374 l 235 374 l 235 505 l 563 506 l 563 610 l 132 610 m 453 266 l 453 102 l 235 102 l 235 266 l 453 266 "},"7":{"ha":694,"x_min":133,"x_max":562,"o":"m 562 505 l 353 0 l 203 1 l 442 505 l 133 505 l 133 610 l 562 610 l 562 505 "},"8":{"ha":694,"x_min":132,"x_max":563,"o":"m 241 346 l 241 510 l 460 510 l 460 346 l 241 346 m 241 236 l 460 236 l 460 107 l 241 106 l 241 236 m 132 612 l 132 1 l 563 0 l 563 612 l 132 612 "},"9":{"ha":694,"x_min":132,"x_max":563,"o":"m 563 0 l 563 612 l 132 612 l 132 236 l 460 236 l 460 107 l 132 106 l 132 1 l 563 0 m 241 346 l 241 510 l 460 510 l 460 346 l 241 346 "}," ":{"ha":277,"x_min":0,"x_max":0,"o":""},"!":{"ha":324,"x_min":111,"x_max":214,"o":"m 214 307 l 111 305 l 111 917 l 214 917 l 214 307 m 214 0 l 111 0 l 111 180 l 214 180 l 214 0 "},"\"":{"ha":297,"x_min":27,"x_max":270,"o":"m 27 917 l 130 917 l 130 652 l 27 652 l 27 917 m 167 917 l 270 917 l 270 652 l 167 652 l 167 917 "},"#":{"ha":568,"x_min":56,"x_max":514,"o":"m 335 556 l 248 556 l 248 669 l 335 669 l 335 556 m 335 389 l 445 389 l 445 460 l 514 460 l 514 556 l 444 556 l 444 669 l 514 669 l 514 764 l 444 764 l 444 863 l 334 863 l 334 764 l 248 764 l 248 863 l 138 863 l 138 764 l 56 764 l 56 669 l 140 669 l 140 556 l 56 556 l 56 460 l 140 460 l 140 389 l 250 389 l 250 460 l 335 460 l 335 389 "},"$":{"ha":652,"x_min":111,"x_max":541,"o":"m 373 102 l 373 239 l 433 231 l 433 102 l 373 102 m 277 510 l 277 366 l 220 374 l 220 510 l 277 510 m 373 764 l 277 764 l 277 612 l 111 612 l 111 278 l 277 254 l 277 102 l 214 102 l 214 153 l 111 153 l 111 0 l 277 0 l 277 -111 l 373 -111 l 373 1 l 538 1 l 538 330 l 373 353 l 373 510 l 439 510 l 439 445 l 541 445 l 541 612 l 373 612 l 373 764 "},"%":{"ha":730,"x_min":27,"x_max":703,"o":"m 538 799 l 628 747 l 170 -46 l 80 5 l 538 799 m 27 486 l 286 486 l 286 769 l 27 769 l 27 486 m 212 709 l 212 544 l 107 544 l 107 708 l 212 709 m 445 0 l 703 0 l 703 283 l 445 283 l 445 0 m 628 222 l 628 58 l 524 58 l 524 222 l 628 222 "},"&":{"ha":694,"x_min":111,"x_max":583,"o":"m 514 556 l 411 556 l 411 445 l 316 445 l 316 681 l 439 681 l 439 777 l 209 777 l 209 445 l 111 445 l 111 0 l 514 0 l 514 349 l 583 349 l 583 445 l 514 445 l 514 556 m 411 104 l 220 104 l 220 347 l 411 347 l 411 104 "},"'":{"ha":157,"x_min":27,"x_max":130,"o":"m 27 917 l 130 917 l 130 652 l 27 652 l 27 917 "},"(":{"ha":324,"x_min":111,"x_max":309,"o":"m 309 -153 l 309 -42 l 214 -42 l 214 806 l 309 806 l 309 917 l 111 917 l 111 -153 l 309 -153 "},")":{"ha":324,"x_min":111,"x_max":309,"o":"m 111 -153 l 111 -42 l 208 -42 l 208 806 l 111 806 l 111 917 l 309 917 l 309 -153 l 111 -153 "},"*":{"ha":666,"x_min":7,"x_max":423,"o":"m 160 347 l 256 347 l 256 500 l 354 430 l 423 528 l 312 579 l 423 648 l 354 736 l 256 681 l 256 833 l 160 833 l 160 681 l 62 736 l 7 652 l 118 579 l 7 528 l 62 430 l 160 500 l 160 347 "},"+":{"ha":666,"x_min":35,"x_max":632,"o":"m 271 0 l 382 0 l 382 278 l 632 278 l 632 374 l 382 374 l 382 612 l 271 612 l 271 374 l 35 374 l 35 278 l 271 278 l 271 0 "},",":{"ha":324,"x_min":69,"x_max":241,"o":"m 69 -111 l 172 -111 l 241 167 l 138 167 l 69 -111 "},"-":{"ha":444,"x_min":35,"x_max":410,"o":"m 410 278 l 35 278 l 35 374 l 410 374 l 410 278 "},".":{"ha":324,"x_min":111,"x_max":214,"o":"m 111 167 l 214 167 l 214 0 l 111 0 l 111 167 "},"/":{"ha":324,"x_min":-4,"x_max":330,"o":"m 229 916 l 330 892 l 96 -208 l -4 -184 l 229 916 "},":":{"ha":324,"x_min":111,"x_max":214,"o":"m 111 167 l 214 167 l 214 0 l 111 0 l 111 167 m 111 612 l 214 612 l 214 445 l 111 445 l 111 612 "},";":{"ha":324,"x_min":69,"x_max":241,"o":"m 111 612 l 214 612 l 214 445 l 111 445 l 111 612 m 69 -111 l 172 -111 l 241 167 l 138 167 l 69 -111 "},"<":{"ha":694,"x_min":14,"x_max":681,"o":"m 14 320 l 594 5 l 681 98 l 240 320 l 681 541 l 594 633 l 14 320 "},"=":{"ha":666,"x_min":35,"x_max":632,"o":"m 632 334 l 35 334 l 35 430 l 632 430 l 632 334 m 632 167 l 35 167 l 35 264 l 632 264 l 632 167 "},">":{"ha":694,"x_min":14,"x_max":681,"o":"m 681 320 l 100 5 l 14 98 l 454 320 l 14 541 l 100 633 l 681 320 "},"?":{"ha":652,"x_min":110,"x_max":538,"o":"m 111 861 l 110 761 l 439 761 l 439 484 l 250 484 l 250 264 l 355 264 l 355 389 l 538 389 l 538 861 l 111 861 m 250 167 l 353 167 l 353 0 l 250 0 l 250 167 "},"@":{"ha":791,"x_min":111,"x_max":681,"o":"m 681 -209 l 681 -100 l 221 -100 l 221 514 l 572 514 l 572 361 l 336 361 l 336 0 l 681 0 l 681 612 l 111 612 l 111 -209 l 681 -209 m 572 100 l 437 100 l 437 262 l 572 262 l 572 100 "},"A":{"ha":652,"x_min":111,"x_max":541,"o":"m 214 681 l 433 681 l 433 445 l 214 445 l 214 681 m 541 0 l 541 777 l 111 777 l 111 0 l 214 0 l 214 347 l 433 347 l 433 0 l 541 0 "},"B":{"ha":652,"x_min":111,"x_max":541,"o":"m 214 681 l 378 681 l 378 458 l 214 458 l 214 681 m 111 0 l 541 0 l 541 458 l 486 458 l 486 777 l 111 777 l 111 0 m 214 104 l 214 361 l 433 361 l 433 104 l 214 104 "},"C":{"ha":652,"x_min":111,"x_max":541,"o":"m 439 677 l 439 556 l 541 556 l 541 777 l 111 777 l 111 0 l 530 0 l 530 98 l 220 98 l 220 677 l 439 677 "},"D":{"ha":652,"x_min":111,"x_max":541,"o":"m 214 106 l 214 680 l 392 680 l 419 639 l 419 138 l 392 106 l 214 106 m 111 0 l 403 0 l 541 167 l 541 597 l 416 777 l 111 777 l 111 0 "},"E":{"ha":652,"x_min":111,"x_max":541,"o":"m 541 106 l 214 106 l 214 415 l 541 415 l 541 513 l 214 513 l 214 681 l 541 681 l 541 779 l 111 777 l 111 0 l 541 0 l 541 106 "},"F":{"ha":652,"x_min":111,"x_max":541,"o":"m 214 0 l 214 415 l 541 415 l 541 513 l 214 513 l 214 681 l 541 681 l 541 779 l 111 777 l 111 0 l 214 0 "},"G":{"ha":652,"x_min":111,"x_max":541,"o":"m 305 514 l 305 418 l 438 418 l 438 98 l 220 98 l 220 675 l 541 675 l 541 777 l 111 777 l 111 0 l 541 0 l 541 514 l 305 514 "},"H":{"ha":652,"x_min":111,"x_max":541,"o":"m 433 514 l 433 777 l 541 777 l 541 0 l 433 0 l 433 416 l 214 416 l 214 0 l 111 0 l 111 777 l 214 777 l 214 514 l 433 514 "},"I":{"ha":439,"x_min":69,"x_max":370,"o":"m 168 678 l 168 100 l 77 100 l 77 0 l 370 0 l 370 100 l 271 100 l 271 678 l 363 678 l 363 777 l 69 777 l 69 678 l 168 678 "},"J":{"ha":312,"x_min":0,"x_max":243,"o":"m 138 777 l 138 -109 l 0 -109 l 0 -209 l 243 -209 l 243 777 l 138 777 "},"K":{"ha":652,"x_min":111,"x_max":583,"o":"m 583 0 l 423 0 l 235 347 l 214 347 l 214 0 l 111 0 l 111 777 l 214 777 l 214 445 l 422 777 l 570 777 l 312 410 l 583 0 "},"L":{"ha":652,"x_min":111,"x_max":541,"o":"m 214 106 l 214 779 l 111 777 l 111 0 l 541 0 l 541 106 l 214 106 "},"M":{"ha":971,"x_min":111,"x_max":861,"o":"m 541 0 l 541 681 l 753 681 l 753 0 l 861 0 l 861 777 l 111 777 l 111 0 l 214 0 l 214 681 l 430 681 l 430 0 l 541 0 "},"N":{"ha":652,"x_min":111,"x_max":541,"o":"m 210 779 l 433 347 l 433 777 l 541 777 l 541 0 l 460 0 l 214 486 l 214 0 l 111 0 l 111 777 l 210 779 "},"O":{"ha":652,"x_min":111,"x_max":541,"o":"m 214 106 l 214 680 l 433 680 l 433 106 l 214 106 m 111 0 l 541 0 l 541 777 l 111 777 l 111 0 "},"P":{"ha":624,"x_min":111,"x_max":514,"o":"m 514 347 l 514 777 l 111 777 l 111 0 l 216 0 l 214 347 l 514 347 m 406 445 l 214 445 l 214 681 l 406 681 l 406 445 "},"Q":{"ha":652,"x_min":111,"x_max":541,"o":"m 437 -209 l 437 0 l 541 0 l 541 777 l 111 777 l 111 0 l 334 0 l 334 -209 l 437 -209 m 433 106 l 214 106 l 214 680 l 433 681 l 433 106 "},"R":{"ha":652,"x_min":111,"x_max":583,"o":"m 583 0 l 395 347 l 514 347 l 514 777 l 111 777 l 111 0 l 216 0 l 214 347 l 258 347 l 448 0 l 583 0 m 406 445 l 214 445 l 214 681 l 406 681 l 406 445 "},"S":{"ha":652,"x_min":111,"x_max":541,"o":"m 214 102 l 433 102 l 433 231 l 111 416 l 111 777 l 541 777 l 541 556 l 439 556 l 439 677 l 220 677 l 220 514 l 538 330 l 538 1 l 111 0 l 111 222 l 214 222 l 214 102 "},"T":{"ha":652,"x_min":110,"x_max":541,"o":"m 381 0 l 381 678 l 541 678 l 541 777 l 110 777 l 110 678 l 278 678 l 278 0 l 381 0 "},"U":{"ha":652,"x_min":111,"x_max":541,"o":"m 541 777 l 433 777 l 433 98 l 214 98 l 214 777 l 111 777 l 111 0 l 541 0 l 541 777 "},"V":{"ha":610,"x_min":56,"x_max":556,"o":"m 556 777 l 419 777 l 323 111 l 283 111 l 186 777 l 56 777 l 194 0 l 416 0 l 556 777 "},"W":{"ha":971,"x_min":111,"x_max":861,"o":"m 430 777 l 430 98 l 220 98 l 220 777 l 111 777 l 111 0 l 861 0 l 861 777 l 758 777 l 758 98 l 541 98 l 541 777 l 430 777 "},"X":{"ha":652,"x_min":42,"x_max":612,"o":"m 612 0 l 450 416 l 597 777 l 448 777 l 336 445 l 311 445 l 199 777 l 56 777 l 203 416 l 42 0 l 186 0 l 311 347 l 336 347 l 461 0 l 612 0 "},"Y":{"ha":652,"x_min":111,"x_max":541,"o":"m 541 777 l 433 777 l 433 350 l 214 350 l 214 777 l 114 777 l 114 250 l 433 250 l 433 98 l 111 98 l 111 0 l 541 0 l 541 777 "},"Z":{"ha":652,"x_min":111,"x_max":541,"o":"m 247 98 l 541 673 l 541 777 l 111 777 l 111 677 l 433 677 l 111 98 l 111 0 l 530 0 l 530 98 l 247 98 "},"[":{"ha":309,"x_min":0,"x_max":338,"o":"m 338 -264 l 338 -153 l 103 -153 l 103 806 l 338 806 l 338 917 l 0 917 l 0 -264 l 338 -264 "},"\\":{"ha":324,"x_min":-4,"x_max":330,"o":"m 96 916 l -4 892 l 229 -208 l 330 -184 l 96 916 "},"]":{"ha":309,"x_min":-27,"x_max":309,"o":"m -27 -264 l -27 -153 l 208 -153 l 208 806 l -27 806 l -27 917 l 309 917 l 309 -264 l -27 -264 "},"^":{"ha":652,"x_min":117,"x_max":495,"o":"m 305 922 l 117 734 l 191 661 l 305 787 l 419 661 l 495 734 l 305 922 "},"_":{"ha":666,"x_min":35,"x_max":632,"o":"m 632 -153 l 35 -153 l 35 -56 l 632 -56 l 632 -153 "},"`":{"ha":652,"x_min":111,"x_max":464,"o":"m 186 917 l 111 833 l 389 652 l 464 736 l 186 917 "},"a":{"ha":652,"x_min":111,"x_max":541,"o":"m 433 361 l 114 361 l 114 0 l 541 0 l 541 612 l 111 612 l 111 514 l 433 514 l 433 361 m 433 262 l 433 100 l 214 100 l 214 262 l 433 262 "},"b":{"ha":652,"x_min":111,"x_max":541,"o":"m 214 612 l 214 917 l 111 917 l 111 0 l 541 0 l 541 612 l 214 612 m 214 100 l 214 514 l 433 514 l 433 102 l 214 100 "},"c":{"ha":652,"x_min":111,"x_max":541,"o":"m 439 510 l 439 389 l 541 389 l 541 612 l 111 612 l 111 0 l 530 0 l 530 98 l 220 98 l 220 510 l 439 510 "},"d":{"ha":652,"x_min":111,"x_max":541,"o":"m 439 612 l 111 612 l 111 0 l 541 0 l 541 917 l 439 917 l 439 612 m 439 100 l 220 102 l 220 514 l 439 514 l 439 100 "},"e":{"ha":652,"x_min":111,"x_max":541,"o":"m 220 250 l 538 250 l 538 612 l 111 612 l 111 0 l 541 0 l 541 98 l 220 98 l 220 250 m 220 350 l 220 511 l 439 511 l 439 350 l 220 350 "},"f":{"ha":652,"x_min":111,"x_max":541,"o":"m 111 610 l 111 514 l 244 514 l 244 0 l 347 0 l 347 514 l 541 514 l 541 610 l 347 610 l 347 779 l 541 779 l 541 875 l 244 875 l 244 610 l 111 610 "},"g":{"ha":652,"x_min":111,"x_max":541,"o":"m 433 0 l 114 0 l 114 612 l 541 612 l 541 -250 l 111 -250 l 111 -153 l 433 -153 l 433 0 m 433 100 l 433 511 l 214 511 l 214 100 l 433 100 "},"h":{"ha":652,"x_min":111,"x_max":541,"o":"m 541 0 l 433 0 l 433 514 l 214 514 l 214 0 l 111 0 l 111 917 l 214 917 l 214 612 l 541 612 l 541 0 "},"i":{"ha":324,"x_min":111,"x_max":214,"o":"m 111 610 l 214 612 l 214 0 l 111 0 l 111 610 m 111 917 l 214 917 l 214 736 l 111 736 l 111 917 "},"j":{"ha":323,"x_min":0,"x_max":213,"o":"m 110 917 l 110 736 l 213 736 l 213 917 l 110 917 m 0 -209 l 213 -209 l 213 610 l 110 610 l 110 -106 l 0 -106 l 0 -209 "},"k":{"ha":652,"x_min":111,"x_max":583,"o":"m 583 0 l 423 0 l 235 269 l 214 269 l 214 0 l 111 0 l 111 917 l 214 917 l 214 351 l 422 610 l 570 610 l 312 316 l 583 0 "},"l":{"ha":324,"x_min":111,"x_max":214,"o":"m 111 917 l 214 917 l 214 0 l 111 0 l 111 917 "},"m":{"ha":971,"x_min":111,"x_max":861,"o":"m 541 0 l 541 514 l 753 514 l 753 0 l 861 0 l 861 612 l 111 612 l 111 0 l 214 0 l 214 514 l 430 514 l 430 0 l 541 0 "},"n":{"ha":652,"x_min":111,"x_max":541,"o":"m 541 0 l 433 0 l 433 514 l 214 514 l 214 0 l 111 0 l 111 612 l 541 612 l 541 0 "},"o":{"ha":652,"x_min":111,"x_max":541,"o":"m 111 0 l 541 0 l 541 612 l 111 612 l 111 0 m 439 511 l 439 98 l 220 98 l 220 510 l 439 511 "},"p":{"ha":652,"x_min":111,"x_max":541,"o":"m 214 0 l 214 -305 l 111 -305 l 111 612 l 541 612 l 541 0 l 214 0 m 214 511 l 214 98 l 433 98 l 433 510 l 214 511 "},"q":{"ha":652,"x_min":111,"x_max":541,"o":"m 439 0 l 439 -305 l 541 -305 l 541 612 l 111 612 l 111 0 l 439 0 m 439 511 l 439 98 l 220 98 l 220 510 l 439 511 "},"r":{"ha":555,"x_min":111,"x_max":472,"o":"m 369 511 l 369 389 l 472 389 l 472 612 l 111 612 l 111 0 l 220 0 l 220 510 l 369 511 "},"s":{"ha":652,"x_min":111,"x_max":541,"o":"m 214 102 l 433 102 l 433 217 l 111 292 l 111 612 l 541 612 l 541 389 l 439 389 l 439 510 l 220 510 l 220 389 l 538 315 l 538 1 l 111 0 l 111 153 l 214 153 l 214 102 "},"t":{"ha":597,"x_min":111,"x_max":486,"o":"m 486 0 l 486 98 l 339 98 l 339 514 l 486 514 l 486 612 l 339 612 l 339 792 l 236 792 l 236 612 l 111 612 l 111 514 l 236 514 l 236 0 l 486 0 "},"u":{"ha":652,"x_min":111,"x_max":541,"o":"m 541 612 l 433 612 l 433 98 l 214 98 l 214 612 l 111 612 l 111 0 l 541 0 l 541 612 "},"v":{"ha":610,"x_min":42,"x_max":570,"o":"m 570 612 l 442 612 l 331 98 l 292 98 l 180 612 l 42 612 l 209 0 l 403 0 l 570 612 "},"w":{"ha":971,"x_min":111,"x_max":861,"o":"m 430 612 l 430 98 l 220 98 l 220 612 l 111 612 l 111 0 l 861 0 l 861 612 l 758 612 l 758 98 l 541 98 l 541 612 l 430 612 "},"x":{"ha":652,"x_min":42,"x_max":612,"o":"m 612 0 l 437 320 l 597 612 l 461 612 l 336 361 l 311 361 l 186 612 l 56 612 l 217 320 l 42 0 l 172 0 l 311 250 l 336 250 l 475 0 l 612 0 "},"y":{"ha":652,"x_min":111,"x_max":541,"o":"m 541 612 l 433 612 l 433 100 l 214 100 l 214 612 l 114 612 l 114 0 l 433 0 l 433 -153 l 111 -153 l 111 -250 l 541 -250 l 541 612 "},"z":{"ha":652,"x_min":111,"x_max":541,"o":"m 247 98 l 541 506 l 541 612 l 111 612 l 111 510 l 433 510 l 111 98 l 111 0 l 530 0 l 530 98 l 247 98 "},"{":{"ha":458,"x_min":0,"x_max":487,"o":"m 0 401 l 0 292 l 151 292 l 151 -250 l 487 -250 l 487 -138 l 252 -138 l 252 806 l 487 806 l 487 917 l 151 917 l 151 401 l 0 401 "},"|":{"ha":324,"x_min":111,"x_max":214,"o":"m 111 917 l 214 917 l 214 -209 l 111 -209 l 111 917 "},"}":{"ha":458,"x_min":-27,"x_max":460,"o":"m 460 401 l 460 292 l 309 292 l 309 -250 l -27 -250 l -27 -138 l 208 -138 l 208 806 l -27 806 l -27 917 l 309 917 l 309 401 l 460 401 "},"~":{"ha":694,"x_min":56,"x_max":637,"o":"m 157 431 l 157 285 l 56 285 l 56 534 l 403 534 l 403 395 l 532 395 l 532 534 l 637 534 l 637 285 l 293 285 l 293 431 l 157 431 "}," ":{"ha":277,"x_min":0,"x_max":0,"o":""},"¡":{"ha":324,"x_min":111,"x_max":214,"o":"m 111 610 l 214 612 l 214 0 l 111 0 l 111 610 m 111 917 l 214 917 l 214 736 l 111 736 l 111 917 "},"¢":{"ha":652,"x_min":111,"x_max":541,"o":"m 285 510 l 285 98 l 220 98 l 220 510 l 285 510 m 541 389 l 541 612 l 382 612 l 382 764 l 285 764 l 285 612 l 111 612 l 111 0 l 285 0 l 285 -111 l 382 -111 l 382 0 l 530 0 l 530 98 l 382 98 l 382 510 l 439 510 l 439 389 l 541 389 "},"£":{"ha":652,"x_min":111,"x_max":548,"o":"m 111 96 l 111 0 l 548 0 l 548 96 l 347 96 l 347 278 l 541 278 l 541 373 l 347 373 l 347 515 l 541 515 l 541 612 l 244 612 l 244 373 l 111 373 l 111 278 l 244 278 l 244 96 l 111 96 "},"¥":{"ha":694,"x_min":49,"x_max":646,"o":"m 646 167 l 646 264 l 556 264 l 556 334 l 646 334 l 646 430 l 556 430 l 556 777 l 448 777 l 448 628 l 228 628 l 228 777 l 127 777 l 127 528 l 448 528 l 448 430 l 49 430 l 49 334 l 448 334 l 448 264 l 49 264 l 49 167 l 448 167 l 448 98 l 125 98 l 125 0 l 556 0 l 556 167 l 646 167 "},"¦":{"ha":324,"x_min":111,"x_max":214,"o":"m 111 278 l 214 278 l 214 -194 l 111 -194 l 111 278 m 111 917 l 214 917 l 214 445 l 111 445 l 111 917 "},"§":{"ha":506,"x_min":111,"x_max":396,"o":"m 324 350 l 324 263 l 243 232 l 182 247 l 182 335 l 252 368 l 324 350 m 393 243 l 393 419 l 182 468 l 182 548 l 328 548 l 328 468 l 396 468 l 396 616 l 111 616 l 111 404 l 190 387 l 111 355 l 111 175 l 324 125 l 324 49 l 179 49 l 179 83 l 111 83 l 111 -18 l 393 -16 l 393 190 l 300 213 l 393 243 "},"¨":{"ha":652,"x_min":111,"x_max":464,"o":"m 111 917 l 214 917 l 214 736 l 111 736 l 111 917 m 361 917 l 464 917 l 464 736 l 361 736 l 361 917 "},"©":{"ha":902,"x_min":111,"x_max":792,"o":"m 495 481 l 495 389 l 583 389 l 583 583 l 320 583 l 320 138 l 572 138 l 572 236 l 414 236 l 414 481 l 495 481 m 214 3 l 214 707 l 684 707 l 684 3 l 214 3 m 111 -103 l 792 -103 l 792 806 l 111 806 l 111 -103 "},"«":{"ha":804,"x_min":69,"x_max":736,"o":"m 69 320 l 384 5 l 458 83 l 227 320 l 458 556 l 384 633 l 69 320 m 347 320 l 661 5 l 736 83 l 505 320 l 736 556 l 661 633 l 347 320 "},"®":{"ha":902,"x_min":111,"x_max":792,"o":"m 214 3 l 214 707 l 684 707 l 684 3 l 214 3 m 111 -103 l 792 -103 l 792 806 l 111 806 l 111 -103 m 639 138 l 519 320 l 570 320 l 570 583 l 320 583 l 320 138 l 408 138 l 408 320 l 439 320 l 530 138 l 639 138 m 488 389 l 408 389 l 408 500 l 488 500 l 488 389 "},"±":{"ha":666,"x_min":35,"x_max":632,"o":"m 632 -167 l 35 -167 l 35 -69 l 632 -69 l 632 -167 m 271 0 l 382 0 l 382 278 l 632 278 l 632 374 l 382 374 l 382 612 l 271 612 l 271 374 l 35 374 l 35 278 l 271 278 l 271 0 "},"´":{"ha":652,"x_min":111,"x_max":464,"o":"m 389 917 l 464 833 l 186 652 l 111 736 l 389 917 "},"¶":{"ha":555,"x_min":111,"x_max":445,"o":"m 111 347 l 111 777 l 445 777 l 445 0 l 340 0 l 340 347 l 111 347 m 220 445 l 340 445 l 340 681 l 220 681 l 220 445 "},"¸":{"ha":652,"x_min":264,"x_max":450,"o":"m 264 -236 l 381 -236 l 450 42 l 347 42 l 264 -236 "},"»":{"ha":804,"x_min":69,"x_max":736,"o":"m 736 320 l 422 5 l 347 83 l 579 320 l 347 556 l 422 633 l 736 320 m 458 320 l 144 5 l 69 83 l 301 320 l 69 556 l 144 633 l 458 320 "},"¿":{"ha":652,"x_min":110,"x_max":538,"o":"m 537 0 l 538 100 l 210 100 l 210 377 l 399 377 l 399 597 l 293 597 l 293 472 l 110 472 l 110 0 l 537 0 m 399 694 l 296 694 l 296 861 l 399 861 l 399 694 "},"À":{"ha":652,"x_min":111,"x_max":541,"o":"m 214 681 l 433 681 l 433 445 l 214 445 l 214 681 m 541 0 l 541 777 l 111 777 l 111 0 l 214 0 l 214 347 l 433 347 l 433 0 l 541 0 m 186 1084 l 111 1000 l 389 819 l 464 903 l 186 1084 "},"Á":{"ha":652,"x_min":111,"x_max":541,"o":"m 214 681 l 433 681 l 433 445 l 214 445 l 214 681 m 541 0 l 541 777 l 111 777 l 111 0 l 214 0 l 214 347 l 433 347 l 433 0 l 541 0 m 389 1097 l 464 1015 l 186 833 l 111 917 l 389 1097 "},"Â":{"ha":652,"x_min":111,"x_max":541,"o":"m 214 681 l 433 681 l 433 445 l 214 445 l 214 681 m 541 0 l 541 777 l 111 777 l 111 0 l 214 0 l 214 347 l 433 347 l 433 0 l 541 0 m 305 1089 l 117 901 l 191 827 l 305 952 l 419 827 l 495 901 l 305 1089 "},"Ã":{"ha":652,"x_min":100,"x_max":566,"o":"m 180 983 l 180 865 l 100 865 l 100 1065 l 378 1065 l 378 952 l 480 952 l 480 1065 l 566 1065 l 566 865 l 290 865 l 290 983 l 180 983 m 214 681 l 433 681 l 433 445 l 214 445 l 214 681 m 541 0 l 541 777 l 111 777 l 111 0 l 214 0 l 214 347 l 433 347 l 433 0 l 541 0 "},"Ä":{"ha":652,"x_min":111,"x_max":541,"o":"m 214 681 l 433 681 l 433 445 l 214 445 l 214 681 m 541 0 l 541 777 l 111 777 l 111 0 l 214 0 l 214 347 l 433 347 l 433 0 l 541 0 m 111 1028 l 214 1028 l 214 848 l 111 848 l 111 1028 m 361 1028 l 464 1028 l 464 848 l 361 848 l 361 1028 "},"Å":{"ha":652,"x_min":111,"x_max":541,"o":"m 214 681 l 433 681 l 433 445 l 214 445 l 214 681 m 541 0 l 541 777 l 111 777 l 111 0 l 214 0 l 214 347 l 433 347 l 433 0 l 541 0 m 114 830 l 372 830 l 372 1114 l 114 1114 l 114 830 m 297 1054 l 297 888 l 193 888 l 193 1053 l 297 1054 "},"Æ":{"ha":986,"x_min":111,"x_max":875,"o":"m 433 0 l 875 0 l 875 106 l 547 106 l 547 346 l 875 346 l 875 444 l 547 444 l 547 681 l 875 681 l 875 779 q 111 777 363 777 l 111 0 l 214 0 l 214 346 l 433 346 l 433 0 m 433 444 l 214 444 l 214 681 l 433 681 l 433 444 "},"Ç":{"ha":652,"x_min":111,"x_max":541,"o":"m 441 0 l 530 0 l 530 98 l 220 98 l 220 677 l 439 677 l 439 556 l 541 556 l 541 777 l 111 777 l 111 0 l 335 0 l 264 -236 l 381 -236 l 441 0 "},"È":{"ha":652,"x_min":111,"x_max":541,"o":"m 541 106 l 214 106 l 214 415 l 541 415 l 541 513 l 214 513 l 214 681 l 541 681 l 541 779 l 111 777 l 111 0 l 541 0 l 541 106 m 186 1069 l 111 986 l 389 806 l 464 888 l 186 1069 "},"É":{"ha":652,"x_min":111,"x_max":541,"o":"m 541 106 l 214 106 l 214 415 l 541 415 l 541 513 l 214 513 l 214 681 l 541 681 l 541 779 l 111 777 l 111 0 l 541 0 l 541 106 m 389 1084 l 464 1000 l 186 819 l 111 903 l 389 1084 "},"Ê":{"ha":652,"x_min":111,"x_max":541,"o":"m 541 106 l 214 106 l 214 415 l 541 415 l 541 513 l 214 513 l 214 681 l 541 681 l 541 779 l 111 777 l 111 0 l 541 0 l 541 106 m 305 1089 l 117 901 l 191 827 l 305 952 l 419 827 l 495 901 l 305 1089 "},"Ë":{"ha":652,"x_min":111,"x_max":541,"o":"m 541 106 l 214 106 l 214 415 l 541 415 l 541 513 l 214 513 l 214 681 l 541 681 l 541 779 l 111 777 l 111 0 l 541 0 l 541 106 m 111 1015 l 214 1015 l 214 833 l 111 833 l 111 1015 m 361 1015 l 464 1015 l 464 833 l 361 833 l 361 1015 "},"Ì":{"ha":439,"x_min":27,"x_max":381,"o":"m 168 678 l 168 100 l 77 100 l 77 0 l 370 0 l 370 100 l 271 100 l 271 678 l 363 678 l 363 777 l 69 777 l 69 678 l 168 678 m 103 1084 l 27 1000 l 305 819 l 381 903 l 103 1084 "},"Í":{"ha":439,"x_min":27,"x_max":381,"o":"m 168 678 l 168 100 l 77 100 l 77 0 l 370 0 l 370 100 l 271 100 l 271 678 l 363 678 l 363 777 l 69 777 l 69 678 l 168 678 m 305 1084 l 381 1000 l 103 819 l 27 903 l 305 1084 "},"Î":{"ha":439,"x_min":19,"x_max":397,"o":"m 168 678 l 168 100 l 77 100 l 77 0 l 370 0 l 370 100 l 271 100 l 271 678 l 363 678 l 363 777 l 69 777 l 69 678 l 168 678 m 209 1089 l 19 901 l 95 827 l 209 952 l 323 827 l 397 901 l 209 1089 "},"Ï":{"ha":439,"x_min":56,"x_max":408,"o":"m 168 678 l 168 100 l 77 100 l 77 0 l 370 0 l 370 100 l 271 100 l 271 678 l 363 678 l 363 777 l 69 777 l 69 678 l 168 678 m 56 1028 l 159 1028 l 159 848 l 56 848 l 56 1028 m 305 1028 l 408 1028 l 408 848 l 305 848 l 305 1028 "},"Ñ":{"ha":652,"x_min":100,"x_max":566,"o":"m 180 983 l 180 865 l 100 865 l 100 1065 l 378 1065 l 378 952 l 480 952 l 480 1065 l 566 1065 l 566 865 l 290 865 l 290 983 l 180 983 m 210 779 l 433 347 l 433 777 l 541 777 l 541 0 l 460 0 l 214 486 l 214 0 l 111 0 l 111 777 l 210 779 "},"Ò":{"ha":652,"x_min":111,"x_max":541,"o":"m 214 106 l 214 680 l 433 680 l 433 106 l 214 106 m 111 0 l 541 0 l 541 777 l 111 777 l 111 0 m 186 1069 l 111 986 l 389 806 l 464 888 l 186 1069 "},"Ó":{"ha":652,"x_min":111,"x_max":541,"o":"m 214 106 l 214 680 l 433 680 l 433 106 l 214 106 m 111 0 l 541 0 l 541 777 l 111 777 l 111 0 m 389 1084 l 464 1000 l 186 819 l 111 903 l 389 1084 "},"Ô":{"ha":652,"x_min":111,"x_max":541,"o":"m 214 106 l 214 680 l 433 680 l 433 106 l 214 106 m 111 0 l 541 0 l 541 777 l 111 777 l 111 0 m 305 1089 l 117 901 l 191 827 l 305 952 l 419 827 l 495 901 l 305 1089 "},"Õ":{"ha":652,"x_min":100,"x_max":566,"o":"m 180 983 l 180 865 l 100 865 l 100 1065 l 378 1065 l 378 952 l 480 952 l 480 1065 l 566 1065 l 566 865 l 290 865 l 290 983 l 180 983 m 214 106 l 214 680 l 433 680 l 433 106 l 214 106 m 111 0 l 541 0 l 541 777 l 111 777 l 111 0 "},"Ö":{"ha":652,"x_min":111,"x_max":541,"o":"m 214 106 l 214 680 l 433 680 l 433 106 l 214 106 m 111 0 l 541 0 l 541 777 l 111 777 l 111 0 "},"×":{"ha":696,"x_min":98,"x_max":598,"o":"m 519 60 l 598 138 l 426 309 l 598 481 l 519 562 l 347 389 l 176 562 l 98 481 l 270 309 l 98 138 l 176 60 l 347 232 l 519 60 "},"Ø":{"ha":652,"x_min":111,"x_max":541,"o":"m 351 680 l 214 161 l 214 680 l 351 680 m 301 106 l 433 602 l 433 106 l 301 106 m 111 0 l 171 0 l 153 -69 l 255 -69 l 274 0 l 541 0 l 541 777 l 479 777 l 506 875 l 403 875 l 377 777 l 111 777 l 111 0 "},"Ù":{"ha":652,"x_min":111,"x_max":541,"o":"m 541 777 l 433 777 l 433 98 l 214 98 l 214 777 l 111 777 l 111 0 l 541 0 l 541 777 m 186 1084 l 111 1000 l 389 819 l 464 903 l 186 1084 "},"Ú":{"ha":652,"x_min":111,"x_max":541,"o":"m 541 777 l 433 777 l 433 98 l 214 98 l 214 777 l 111 777 l 111 0 l 541 0 l 541 777 m 389 1084 l 464 1000 l 186 819 l 111 903 l 389 1084 "},"Û":{"ha":652,"x_min":111,"x_max":541,"o":"m 541 777 l 433 777 l 433 98 l 214 98 l 214 777 l 111 777 l 111 0 l 541 0 l 541 777 m 305 1089 l 117 901 l 191 827 l 305 952 l 419 827 l 495 901 l 305 1089 "},"Ü":{"ha":652,"x_min":111,"x_max":541,"o":"m 541 777 l 433 777 l 433 98 l 214 98 l 214 777 l 111 777 l 111 0 l 541 0 l 541 777 "},"Ý":{"ha":652,"x_min":111,"x_max":541,"o":"m 541 777 l 433 777 l 433 350 l 214 350 l 214 777 l 114 777 l 114 250 l 433 250 l 433 98 l 111 98 l 111 0 l 541 0 l 541 777 m 389 1084 l 464 1000 l 186 819 l 111 903 l 389 1084 "},"ß":{"ha":907,"x_min":111,"x_max":798,"o":"m 111 875 l 111 0 l 214 0 l 214 779 l 408 779 l 408 875 l 111 875 m 469 102 l 689 102 l 689 217 l 366 292 l 366 612 l 798 612 l 798 389 l 694 389 l 694 510 l 475 510 l 475 389 l 795 315 l 795 1 l 366 0 l 366 153 l 469 153 l 469 102 "},"à":{"ha":652,"x_min":111,"x_max":541,"o":"m 433 361 l 114 361 l 114 0 l 541 0 l 541 612 l 111 612 l 111 514 l 433 514 l 433 361 m 433 262 l 433 100 l 214 100 l 214 262 l 433 262 m 186 917 l 111 833 l 389 652 l 464 736 l 186 917 "},"á":{"ha":652,"x_min":111,"x_max":541,"o":"m 433 361 l 114 361 l 114 0 l 541 0 l 541 612 l 111 612 l 111 514 l 433 514 l 433 361 m 433 262 l 433 100 l 214 100 l 214 262 l 433 262 m 389 917 l 464 833 l 186 652 l 111 736 l 389 917 "},"â":{"ha":652,"x_min":111,"x_max":541,"o":"m 433 361 l 114 361 l 114 0 l 541 0 l 541 612 l 111 612 l 111 514 l 433 514 l 433 361 m 433 262 l 433 100 l 214 100 l 214 262 l 433 262 m 305 922 l 117 734 l 191 661 l 305 787 l 419 661 l 495 734 l 305 922 "},"ã":{"ha":652,"x_min":100,"x_max":566,"o":"m 180 859 l 180 741 l 100 741 l 100 940 l 378 940 l 378 827 l 480 827 l 480 940 l 566 940 l 566 741 l 290 741 l 290 859 l 180 859 m 433 361 l 114 361 l 114 0 l 541 0 l 541 612 l 111 612 l 111 514 l 433 514 l 433 361 m 433 262 l 433 100 l 214 100 l 214 262 l 433 262 "},"ä":{"ha":652,"x_min":111,"x_max":541,"o":"m 433 361 l 114 361 l 114 0 l 541 0 l 541 612 l 111 612 l 111 514 l 433 514 l 433 361 m 433 262 l 433 100 l 214 100 l 214 262 l 433 262 m 111 917 l 214 917 l 214 736 l 111 736 l 111 917 m 361 917 l 464 917 l 464 736 l 361 736 l 361 917 "},"å":{"ha":652,"x_min":111,"x_max":541,"o":"m 433 361 l 114 361 l 114 0 l 541 0 l 541 612 l 111 612 l 111 514 l 433 514 l 433 361 m 433 262 l 433 100 l 214 100 l 214 262 l 433 262 m 114 705 l 372 705 l 372 989 l 114 989 l 114 705 m 297 929 l 297 764 l 193 764 l 193 928 l 297 929 "},"æ":{"ha":986,"x_min":111,"x_max":875,"o":"m 114 389 l 114 0 l 875 0 l 875 98 l 553 98 l 553 222 l 872 222 l 872 612 l 111 612 l 111 514 l 433 514 l 433 389 l 114 389 m 772 323 l 553 323 l 553 511 l 772 511 l 772 323 m 433 100 l 214 100 l 214 289 l 433 289 l 433 100 "},"ç":{"ha":652,"x_min":111,"x_max":541,"o":"m 264 -236 l 381 -236 l 441 0 l 530 0 l 530 98 l 220 98 l 220 510 l 439 510 l 439 389 l 541 389 l 541 612 l 111 612 l 111 0 l 335 0 l 264 -236 "},"è":{"ha":652,"x_min":111,"x_max":541,"o":"m 220 250 l 538 250 l 538 612 l 111 612 l 111 0 l 541 0 l 541 98 l 220 98 l 220 250 m 220 350 l 220 511 l 439 511 l 439 350 l 220 350 m 186 917 l 111 833 l 389 652 l 464 736 l 186 917 "},"é":{"ha":652,"x_min":111,"x_max":541,"o":"m 220 250 l 538 250 l 538 612 l 111 612 l 111 0 l 541 0 l 541 98 l 220 98 l 220 250 m 220 350 l 220 511 l 439 511 l 439 350 l 220 350 m 389 917 l 464 833 l 186 652 l 111 736 l 389 917 "},"ê":{"ha":652,"x_min":111,"x_max":541,"o":"m 220 250 l 538 250 l 538 612 l 111 612 l 111 0 l 541 0 l 541 98 l 220 98 l 220 250 m 220 350 l 220 511 l 439 511 l 439 350 l 220 350 m 305 922 l 117 734 l 191 661 l 305 787 l 419 661 l 495 734 l 305 922 "},"ë":{"ha":652,"x_min":111,"x_max":541,"o":"m 220 250 l 538 250 l 538 612 l 111 612 l 111 0 l 541 0 l 541 98 l 220 98 l 220 250 m 220 350 l 220 511 l 439 511 l 439 350 l 220 350 m 111 917 l 214 917 l 214 736 l 111 736 l 111 917 m 361 917 l 464 917 l 464 736 l 361 736 l 361 917 "},"ì":{"ha":324,"x_min":-14,"x_max":339,"o":"m 111 610 l 214 612 l 214 0 l 111 0 l 111 610 m 61 917 l -14 833 l 264 652 l 339 736 l 61 917 "},"í":{"ha":324,"x_min":-14,"x_max":339,"o":"m 111 610 l 214 612 l 214 0 l 111 0 l 111 610 m 264 917 l 339 833 l 61 652 l -14 736 l 264 917 "},"î":{"ha":324,"x_min":-22,"x_max":355,"o":"m 111 610 l 214 612 l 214 0 l 111 0 l 111 610 m 167 922 l -22 734 l 53 661 l 167 787 l 281 661 l 355 734 l 167 922 "},"ï":{"ha":324,"x_min":-14,"x_max":339,"o":"m 111 610 l 214 612 l 214 0 l 111 0 l 111 610 m -14 917 l 90 917 l 90 736 l -14 736 l -14 917 m 236 917 l 339 917 l 339 736 l 236 736 l 236 917 "},"ñ":{"ha":652,"x_min":100,"x_max":566,"o":"m 180 845 l 180 727 l 100 727 l 100 926 l 378 926 l 378 814 l 480 814 l 480 926 l 566 926 l 566 727 l 290 727 l 290 845 l 180 845 m 541 0 l 433 0 l 433 514 l 214 514 l 214 0 l 111 0 l 111 612 l 541 612 l 541 0 "},"ò":{"ha":652,"x_min":111,"x_max":541,"o":"m 111 0 l 541 0 l 541 612 l 111 612 l 111 0 m 439 511 l 439 98 l 220 98 l 220 510 l 439 511 m 186 917 l 111 833 l 389 652 l 464 736 l 186 917 "},"ó":{"ha":652,"x_min":111,"x_max":541,"o":"m 111 0 l 541 0 l 541 612 l 111 612 l 111 0 m 439 511 l 439 98 l 220 98 l 220 510 l 439 511 m 389 917 l 464 833 l 186 652 l 111 736 l 389 917 "},"ô":{"ha":652,"x_min":111,"x_max":541,"o":"m 111 0 l 541 0 l 541 612 l 111 612 l 111 0 m 439 511 l 439 98 l 220 98 l 220 510 l 439 511 m 305 922 l 117 734 l 191 661 l 305 787 l 419 661 l 495 734 l 305 922 "},"õ":{"ha":652,"x_min":100,"x_max":566,"o":"m 180 845 l 180 727 l 100 727 l 100 926 l 378 926 l 378 814 l 480 814 l 480 926 l 566 926 l 566 727 l 290 727 l 290 845 l 180 845 m 111 0 l 541 0 l 541 612 l 111 612 l 111 0 m 439 511 l 439 98 l 220 98 l 220 510 l 439 511 "},"ö":{"ha":652,"x_min":111,"x_max":541,"o":"m 111 0 l 541 0 l 541 612 l 111 612 l 111 0 m 439 511 l 439 98 l 220 98 l 220 510 l 439 511 m 111 917 l 214 917 l 214 736 l 111 736 l 111 917 m 361 917 l 464 917 l 464 736 l 361 736 l 361 917 "},"÷":{"ha":694,"x_min":56,"x_max":639,"o":"m 298 138 l 401 138 l 401 0 l 298 0 l 298 138 m 298 612 l 401 612 l 401 472 l 298 472 l 298 612 m 639 264 l 56 264 l 56 361 l 639 361 l 639 264 "},"ø":{"ha":652,"x_min":111,"x_max":541,"o":"m 111 0 l 190 0 l 153 -138 l 255 -138 l 293 0 l 541 0 l 541 612 l 460 612 l 506 777 l 403 777 l 357 612 l 111 612 l 111 0 m 330 510 l 220 106 l 220 510 l 330 510 m 439 510 l 439 98 l 320 98 l 431 510 l 439 510 "},"ù":{"ha":652,"x_min":111,"x_max":541,"o":"m 541 612 l 433 612 l 433 98 l 214 98 l 214 612 l 111 612 l 111 0 l 541 0 l 541 612 m 186 917 l 111 833 l 389 652 l 464 736 l 186 917 "},"ú":{"ha":652,"x_min":111,"x_max":541,"o":"m 541 612 l 433 612 l 433 98 l 214 98 l 214 612 l 111 612 l 111 0 l 541 0 l 541 612 m 389 917 l 464 833 l 186 652 l 111 736 l 389 917 "},"û":{"ha":652,"x_min":111,"x_max":541,"o":"m 541 612 l 433 612 l 433 98 l 214 98 l 214 612 l 111 612 l 111 0 l 541 0 l 541 612 m 305 922 l 117 734 l 191 661 l 305 787 l 419 661 l 495 734 l 305 922 "},"ü":{"ha":652,"x_min":111,"x_max":541,"o":"m 541 612 l 433 612 l 433 98 l 214 98 l 214 612 l 111 612 l 111 0 l 541 0 l 541 612 m 111 917 l 214 917 l 214 736 l 111 736 l 111 917 m 361 917 l 464 917 l 464 736 l 361 736 l 361 917 "},"ý":{"ha":652,"x_min":111,"x_max":541,"o":"m 541 612 l 433 612 l 433 100 l 214 100 l 214 612 l 114 612 l 114 0 l 433 0 l 433 -153 l 111 -153 l 111 -250 l 541 -250 l 541 612 m 389 944 l 464 861 l 186 681 l 111 764 l 389 944 "},"ÿ":{"ha":652,"x_min":111,"x_max":541,"o":"m 541 612 l 433 612 l 433 100 l 214 100 l 214 612 l 114 612 l 114 0 l 433 0 l 433 -153 l 111 -153 l 111 -250 l 541 -250 l 541 612 m 111 917 l 214 917 l 214 736 l 111 736 l 111 917 m 361 917 l 464 917 l 464 736 l 361 736 l 361 917 "},"ı":{"ha":324,"x_min":111,"x_max":214,"o":"m 111 610 l 214 612 l 214 0 l 111 0 l 111 610 "},"Œ":{"ha":978,"x_min":111,"x_max":868,"o":"m 214 106 l 214 680 l 433 680 l 433 106 l 214 106 m 868 106 l 541 106 l 541 415 l 868 415 l 868 513 l 541 513 l 541 681 l 868 681 l 868 779 q 111 777 357 777 l 111 0 l 868 0 l 868 106 "},"œ":{"ha":958,"x_min":111,"x_max":848,"o":"m 111 0 l 848 0 l 848 98 l 525 98 l 525 250 l 845 250 l 845 612 l 111 612 l 111 0 m 745 350 l 525 350 l 525 511 l 745 511 l 745 350 m 439 98 l 220 98 l 220 510 l 439 511 l 439 98 "},"Š":{"ha":652,"x_min":111,"x_max":541,"o":"m 214 102 l 433 102 l 433 231 l 111 416 l 111 777 l 541 777 l 541 556 l 439 556 l 439 677 l 220 677 l 220 514 l 538 330 l 538 1 l 111 0 l 111 222 l 214 222 l 214 102 m 305 827 l 495 1017 l 419 1089 l 305 964 l 191 1089 l 117 1017 l 305 827 "},"š":{"ha":652,"x_min":111,"x_max":541,"o":"m 214 102 l 433 102 l 433 217 l 111 292 l 111 612 l 541 612 l 541 389 l 439 389 l 439 510 l 220 510 l 220 389 l 538 315 l 538 1 l 111 0 l 111 153 l 214 153 l 214 102 m 305 661 l 495 850 l 419 922 l 305 798 l 191 922 l 117 850 l 305 661 "},"Ÿ":{"ha":652,"x_min":111,"x_max":541,"o":"m 541 777 l 433 777 l 433 350 l 214 350 l 214 777 l 114 777 l 114 250 l 433 250 l 433 98 l 111 98 l 111 0 l 541 0 l 541 777 m 111 1015 l 214 1015 l 214 833 l 111 833 l 111 1015 m 361 1015 l 464 1015 l 464 833 l 361 833 l 361 1015 "},"Ž":{"ha":652,"x_min":111,"x_max":541,"o":"m 247 98 l 541 673 l 541 777 l 111 777 l 111 677 l 433 677 l 111 98 l 111 0 l 530 0 l 530 98 l 247 98 m 305 814 l 495 1002 l 419 1076 l 305 949 l 191 1076 l 117 1002 l 305 814 "},"ž":{"ha":652,"x_min":111,"x_max":541,"o":"m 247 98 l 541 506 l 541 612 l 111 612 l 111 510 l 433 510 l 111 98 l 111 0 l 530 0 l 530 98 l 247 98 m 305 661 l 495 850 l 419 922 l 305 798 l 191 922 l 117 850 l 305 661 "},"ƒ":{"ha":652,"x_min":111,"x_max":541,"o":"m 111 346 l 111 250 l 244 250 l 244 -264 l 347 -264 l 347 250 l 541 250 l 541 346 l 347 346 l 347 515 l 541 515 l 541 612 l 244 612 l 244 346 l 111 346 "},"ˆ":{"ha":652,"x_min":117,"x_max":495,"o":"m 305 922 l 117 734 l 191 661 l 305 787 l 419 661 l 495 734 l 305 922 "},"˘":{"ha":652,"x_min":117,"x_max":495,"o":"m 305 661 l 495 850 l 419 922 l 305 798 l 191 922 l 117 850 l 305 661 "},"˚":{"ha":652,"x_min":114,"x_max":372,"o":"m 114 705 l 372 705 l 372 989 l 114 989 l 114 705 m 297 929 l 297 764 l 193 764 l 193 928 l 297 929 "},"–":{"ha":694,"x_min":0,"x_max":694,"o":"m 694 278 l 0 278 l 0 374 l 694 374 l 694 278 "},"—":{"ha":1389,"x_min":0,"x_max":1389,"o":"m 1389 278 l 0 278 l 0 374 l 1389 374 l 1389 278 "},"‘":{"ha":186,"x_min":27,"x_max":214,"o":"m 27 583 l 144 583 l 214 861 l 111 861 l 27 583 "},"’":{"ha":171,"x_min":-27,"x_max":144,"o":"m -27 583 l 75 583 l 144 861 l 27 861 l -27 583 "},"‚":{"ha":171,"x_min":-27,"x_max":144,"o":"m -27 -111 l 75 -111 l 144 167 l 27 167 l -27 -111 "},"“":{"ha":353,"x_min":27,"x_max":381,"o":"m 194 583 l 311 583 l 381 861 l 278 861 l 194 583 m 27 583 l 144 583 l 214 861 l 111 861 l 27 583 "},"”":{"ha":338,"x_min":-27,"x_max":311,"o":"m 138 583 l 241 583 l 311 861 l 194 861 l 138 583 m -27 583 l 75 583 l 144 861 l 27 861 l -27 583 "},"„":{"ha":338,"x_min":-27,"x_max":311,"o":"m 138 -111 l 241 -111 l 311 167 l 194 167 l 138 -111 m -27 -111 l 75 -111 l 144 167 l 27 167 l -27 -111 "},"•":{"ha":555,"x_min":138,"x_max":416,"o":"m 138 612 l 138 278 l 416 278 l 416 612 l 138 612 "},"‹":{"ha":528,"x_min":69,"x_max":458,"o":"m 69 320 l 384 5 l 458 83 l 227 320 l 458 556 l 384 633 l 69 320 "},"›":{"ha":528,"x_min":69,"x_max":458,"o":"m 458 320 l 144 5 l 69 83 l 301 320 l 69 556 l 144 633 l 458 320 "},"⁄":{"ha":652,"x_min":111,"x_max":541,"o":"m 541 602 l 195 1 l 111 50 l 457 651 l 541 602 "},"™":{"ha":971,"x_min":39,"x_max":891,"o":"m 700 425 l 700 692 l 785 692 l 785 425 l 891 425 l 891 792 l 400 792 l 400 425 l 503 425 l 503 692 l 591 692 l 591 425 l 700 425 m 297 425 l 297 525 l 217 525 l 217 692 l 297 692 l 297 792 l 217 792 l 217 901 l 114 901 l 114 792 l 39 792 l 39 692 l 114 692 l 114 425 l 297 425 "},"−":{"ha":555,"x_min":20,"x_max":534,"o":"m 534 278 l 20 278 l 20 374 l 534 374 l 534 278 "},"∞":{"ha":694,"x_min":42,"x_max":652,"o":"m 293 214 l 142 214 l 142 431 l 293 431 l 293 214 m 403 214 l 403 431 l 545 431 l 545 214 l 403 214 m 42 104 l 651 104 l 652 534 l 42 534 l 42 104 "},"≠":{"ha":666,"x_min":35,"x_max":632,"o":"m 632 111 l 632 209 l 369 209 l 410 278 l 632 278 l 632 374 l 465 374 l 525 477 l 441 526 l 353 374 l 35 374 l 35 278 l 297 278 l 256 209 l 35 209 l 35 111 l 201 111 l 141 8 l 227 -41 l 313 111 l 632 111 "},"≤":{"ha":528,"x_min":35,"x_max":494,"o":"m 69 416 l 384 159 l 458 236 l 227 416 l 458 597 l 384 675 l 69 416 m 494 0 l 35 0 l 35 98 l 494 98 l 494 0 "},"≥":{"ha":528,"x_min":35,"x_max":494,"o":"m 458 416 l 144 159 l 69 236 l 301 416 l 69 597 l 144 675 l 458 416 m 35 0 l 494 0 l 494 98 l 35 98 l 35 0 "},"ﬁ":{"ha":880,"x_min":111,"x_max":769,"o":"m 111 610 l 111 514 l 244 514 l 244 0 l 347 0 l 347 514 l 541 514 l 541 610 l 347 610 l 347 779 l 541 779 l 541 875 l 244 875 l 244 610 l 111 610 m 667 610 l 769 612 l 769 0 l 667 0 l 667 610 m 667 917 l 769 917 l 769 736 l 667 736 l 667 917 "},"ﬂ":{"ha":880,"x_min":111,"x_max":769,"o":"m 111 610 l 111 514 l 244 514 l 244 0 l 347 0 l 347 514 l 541 514 l 541 610 l 347 610 l 347 779 l 541 779 l 541 875 l 244 875 l 244 610 l 111 610 m 667 917 l 769 917 l 769 0 l 667 0 l 667 917 "}}}
